<?xml version="1.0" encoding="UTF-8"?>
<svg width="370px" height="351px" viewBox="0 0 370 351" version="1.1" xmlns="http://www.w3.org/2000/svg" xmlns:xlink="http://www.w3.org/1999/xlink">
    <!-- Generator: Sketch 55.1 (78136) - https://sketchapp.com -->
    <title>Blob 1.1</title>
    <desc>Created with Sketch.</desc>
    <g id="Mockups" stroke="none" stroke-width="1" fill="none" fill-rule="evenodd">
        <g id="1.0.-Subhome-1" transform="translate(-135.000000, -567.000000)">
            <g id="Blob-1.1" transform="translate(135.000000, 567.000000)">
                <rect id="Rectangle" fill="#FFFFFF" x="0" y="0" width="370" height="351"></rect>
                <path d="M323.957485,109.57076 C353.297485,163.79376 364.810485,224.98076 341.227485,267.50476 C317.643485,310.02976 258.963485,334.07676 202.141485,332.96276 C145.318485,331.84876 90.3524855,305.75876 54.6054855,256.17776 C18.8594855,206.50376 2.23948545,133.52576 29.7224855,80.3237598 C57.1124855,27.2147598 128.698485,-6.11724019 188.121485,0.938759811 C247.450485,7.99475981 294.617485,55.3477598 323.957485,109.57076" id="Fill-1" fill="#4E97FF"></path>
                <g id="Group-5" transform="translate(70.000000, 144.000000)">
                    <path d="M176.391311,111.961922 C165.501367,114.123658 156.386167,112.569837 147.364744,111.0301 C139.663244,109.715689 133.419989,107.849697 129.129656,106.373332 C129.253911,107.117382 129.378167,107.86378 129.502422,108.60783 C133.492667,109.844783 139.271722,112.180208 144.945278,116.804115 C152.677256,123.106242 156.095456,130.307332 160.946111,140.834349 C164.167378,147.821847 168.063844,157.677575 170.9944,170.079974 C161.958911,166.338599 148.750311,159.475501 136.2005,146.981563 C129.471944,140.282766 124.529856,133.55815 120.942856,127.793523 C120.703722,126.131733 120.145744,123.629659 118.710944,120.899911 C117.198778,118.024639 115.337289,116.083537 114.059567,114.938123 C113.811056,116.552969 113.562544,118.167816 113.316378,119.780315 C114.941078,123.430151 117.027633,129.218249 117.594989,136.546086 C118.471811,147.833583 115.250544,156.38429 112.7584,162.998589 C110.709356,168.436961 107.056711,176.363323 100.4782,184.794325 C96.0190667,177.534557 86.8405667,160.189038 89.1287444,138.036533 C89.8695889,130.865956 91.6537111,124.718742 93.5949111,119.780315 C92.7274667,118.353242 91.8576778,116.923821 90.9902333,115.496747 C89.4124222,117.787576 87.6001667,120.897564 86.1536444,124.810281 C84.2124444,130.056186 83.6661889,134.741119 83.5489667,138.036533 C79.2492556,143.125178 73.2310667,149.131563 65.1286667,154.614531 C48.4784222,165.880903 31.8914778,168.934559 22.5183889,169.889854 C25.8639111,161.979921 31.5796667,151.093789 41.3114556,140.27103 C56.1705444,123.742323 72.7996889,115.801878 82.2454556,112.142654 C81.8726889,110.962032 81.5022667,109.783757 81.1295,108.603135 C69.2173778,110.814161 52.6984222,112.379717 33.4974222,109.534958 C24.3259556,108.175952 16.2188667,106.058813 9.30978889,103.760942 C14.0807333,99.3295025 22.4105444,92.7644934 34.4281667,88.4856191 C49.3974444,83.1575638 61.8956778,84.2935897 64.5706889,84.5729018 C70.5935667,85.201941 75.4981444,86.5726829 78.8975889,87.7392219 C79.3313111,86.4342004 79.7650333,85.1315261 80.2011,83.8265047 C76.1381778,82.941625 69.9605667,81.0146059 64.0127111,76.3742688 C59.7036222,73.0131344 55.9642333,68.5793474 50.429,57.1862284 C46.6661667,49.4382502 41.9913444,38.3033189 38.3340111,24.0278862 C45.1938556,25.6051783 56.9770333,29.290221 68.6640889,38.5568122 C85.033,51.5553893 91.4778778,67.7813127 93.7777778,74.7054374 C95.3907556,74.4566383 97.0037333,74.2078393 98.6143667,73.9613874 C96.7200556,67.4128084 93.8481111,54.1842096 97.1256444,38.0099237 C100.051511,23.5701898 106.547967,13.3647342 110.5218,8.01790166 C113.555511,11.4236321 118.110767,17.4652243 120.570089,26.0863463 C121.231222,28.4029942 122.525356,33.6606346 122.058811,43.410741 C121.700111,50.9005315 120.223111,62.6926679 114.429989,76.7545089 C115.7335,77.9351308 117.034667,79.1134056 118.338178,80.2940275 C122.312011,73.2595863 131.757778,58.8128109 149.784211,48.4407068 C162.629422,41.04715 174.705656,38.6765174 182.160989,37.8221509 C178.920967,47.4103032 170.966267,66.1617717 152.203678,80.2940275 C146.087022,84.9015044 140.038356,88.1006847 134.714122,90.3539592 C136.139544,91.5345811 137.567311,92.7128559 138.992733,93.8934778 C145.796311,90.8093084 151.849667,89.3845817 156.297078,88.6780863 C161.670544,87.8237197 173.796011,86.0469189 187.555556,91.285782 C194.073111,93.7667311 198.973,97.0691865 202.255222,99.6674936 C191.6935,108.112579 181.746022,110.901006 176.391311,111.961922 M188.4863,126.678621 C192.274922,131.776655 193.892589,136.738553 194.6264,139.719447 C190.819022,139.963552 186.505244,140.022231 181.788222,139.719447 C176.255333,139.362679 171.317933,138.583422 167.088556,137.670376 C166.040589,134.778674 164.286944,130.908205 161.321222,126.866394 C157.895989,122.197891 154.168322,119.094944 151.460489,117.179661 C156.229089,117.22191 161.065678,117.22191 165.9726,117.179661 C169.925333,117.144454 173.833522,117.08108 177.694822,116.994235 C180.344044,118.548056 184.6672,121.540686 188.4863,126.678621 M135.457311,166.542802 C134.334322,173.434067 132.287622,179.041434 130.433167,183.1208 C128.346611,180.639851 126.231922,178.032155 124.107856,175.297712 C121.796233,172.32386 119.629967,169.399297 117.594989,166.542802 C118.971178,162.085544 120.277033,157.039148 121.315622,151.452905 C122.262778,146.357218 122.841856,141.606565 123.177111,137.29483 C125.348067,139.778126 127.519022,142.261423 129.689978,144.747066 C131.860933,147.230362 134.031889,149.713659 136.202844,152.199302 C136.425567,156.097936 136.362267,160.994114 135.457311,166.542802 M78.8929,176.04411 C75.7630667,179.374731 72.6777778,182.008245 69.9605667,184.05497 C68.9688667,180.055408 68.0568778,174.560704 68.2866333,168.035597 C68.4624667,163.03145 69.2642667,158.740839 70.1481222,155.367969 C72.0236778,153.232053 74.1876,150.967042 76.6609889,148.66213 C79.1062444,146.383037 81.4928889,144.406728 83.7318333,142.700342 C83.2160556,146.096684 82.8784556,150.718243 83.5466222,156.112019 C84.0835,160.449573 85.1244333,164.099408 86.1513,166.916001 C84.3038778,169.678609 81.9242667,172.819111 78.8929,176.04411 M30.8880556,132.452637 C27.3432556,131.922179 23.8687889,131.361207 20.4693444,130.776764 C22.6004444,127.683206 25.4020556,124.134299 29.0289111,120.531407 C32.0180778,117.562248 34.9533222,115.170491 37.5884778,113.266944 C41.5224556,113.738723 45.8174778,114.081409 50.4266556,114.198767 C56.4026444,114.351332 61.8933333,114.100186 66.8002556,113.640143 C62.6294889,116.398057 58.1797333,119.606626 53.5893111,123.326876 C49.1278333,126.943851 45.1680667,130.527965 41.6818778,133.945432 C38.1464556,133.497124 34.5477333,133.001873 30.8880556,132.452637 M29.9573111,73.4027631 C27.9364,69.710679 26.4336111,66.2298393 25.3059333,63.1574057 C28.7194444,62.6903207 32.5197889,62.3405937 36.6553889,62.2255828 C41.145,62.1011833 45.2641889,62.2725261 48.9355889,62.5987814 C50.5321556,65.5796758 52.5976111,68.952546 55.2609,72.4709402 C58.1961444,76.3461029 61.1665556,79.4889513 63.8204667,81.9722476 C59.6872111,81.6530337 54.8576556,81.5568001 49.4935667,81.9722476 C44.7624778,82.3384047 40.5166889,83.0331643 36.8406,83.8358933 C34.6321333,81.0239946 32.2290778,77.5525436 29.9573111,73.4027631 M74.2415222,26.8303963 C75.0855222,22.6430613 76.5625222,19.3640775 77.7769444,17.1436633 C80.2878444,18.4369489 83.4645667,20.3874396 86.7092778,23.2908777 C89.4897889,25.7788683 91.5505556,28.2809418 93.0345889,30.369915 C92.2609222,33.4470429 91.5552444,36.8081774 90.9878889,40.4298466 C90.2048444,45.4246051 89.8227,50.0555535 89.6843778,54.2147227 C87.7994444,51.1469834 85.0001778,47.3234582 80.9396,43.5961667 C78.4638667,41.324115 76.0326778,39.5590499 73.8687556,38.1930023 C73.5124,35.533669 73.2920222,31.5341068 74.2415222,26.8303963 M125.967,33.9094336 C128.599811,30.501356 132.301689,26.3727 137.316456,22.3590548 C141.470811,19.035475 145.472778,16.6343294 148.853467,14.9068189 C149.643544,18.5050166 150.438311,24.2273949 149.411444,31.113965 C148.225156,39.077882 145.144556,44.9551729 143.086133,48.252934 C140.0407,49.8935994 136.606089,52.0201272 133.037844,54.773347 C128.395844,58.3527673 124.7854,62.0213798 122.058811,65.20413 C123.463133,59.9324066 124.715067,53.7405962 125.409022,46.7624868 C125.868533,42.1338855 126.013889,37.8268452 125.967,33.9094336 M186.624811,62.03781 C190.947967,61.9227991 194.677978,62.3898841 197.603844,62.9696328 C196.417556,66.6288567 194.802233,70.804456 192.5797,75.2640617 C190.326689,79.7846936 187.930667,83.6340375 185.694067,86.8144405 C181.9875,85.6878033 177.479133,84.6245394 172.297911,84.021319 C166.110922,83.2983935 160.667122,83.4274873 156.297078,83.8358933 C159.478489,81.4065818 163.213189,78.1158622 166.903344,73.7759617 C169.824522,70.3420653 172.0705,67.0114439 173.788978,64.0892286 C177.012589,63.1268926 181.392011,62.1786396 186.624811,62.03781 M211,98.7356708 C207.642756,96.9260097 204.044033,95.1116543 200.208522,93.3325064 C196.281578,91.5111095 192.485922,89.9056514 188.859067,88.4903134 C191.330111,85.0165153 194.026222,80.6719204 196.487889,75.4494874 C199.2262,69.637917 200.954056,64.2676128 202.070011,59.8009656 C199.200411,58.7963808 194.905389,57.6603549 189.6046,57.5664684 C184.812556,57.4796235 180.845756,58.275311 178.067589,59.0569156 C180.201033,56.3529862 183.251156,51.7947998 185.138433,45.4574653 C186.655289,40.3688205 186.894422,35.9045204 186.812367,32.7898379 C181.387322,33.2968246 174.534511,34.4187676 166.903344,36.8879808 C159.239356,39.3689299 153.003133,42.4906539 148.295489,45.2696924 C150.156978,41.8850864 153.003133,35.679193 153.6924,27.3866735 C154.412144,18.7186082 152.438122,11.8695927 151.087722,8.19863305 C147.456178,9.31822881 141.550522,11.6466124 135.644867,16.5803447 C130.379244,20.9789242 127.200178,25.7061063 125.411367,28.8747735 C124.9331,25.1662593 123.732744,19.3687718 120.387222,13.040826 C117.048733,6.72696316 112.943611,2.48094908 110.153722,0 C107.244267,3.57472606 104.030033,8.09301081 101.036178,13.5994503 C98.5885778,18.1013049 96.7903889,22.3449718 95.4540556,26.0793049 C93.5996,23.3941528 89.9657111,18.8852567 83.9170444,15.2753232 C78.5107556,12.0479769 73.4467556,10.8955209 70.3333333,10.4331302 C69.6042111,13.8106948 68.9712111,17.7515779 68.6594,22.1689348 C68.3499333,26.5370012 68.4179222,30.487273 68.6594,33.9047393 C64.1862,30.8769017 58.5993889,27.5767935 51.9130333,24.5912048 C45.1000778,21.5469371 38.8075889,19.5706277 33.4927333,18.2585647 C34.5453889,24.6381481 36.2122889,32.0270106 38.8896444,40.0543009 C41.2927,47.2600849 44.0333556,53.548129 46.7036778,58.8691427 C42.2023444,58.4560424 37.4829778,58.1368285 32.5619889,57.9373199 C27.0431667,57.7143396 21.7634778,57.6673964 16.7463667,57.7518941 C18.5937889,62.3077335 21.0109111,67.4315857 24.1899778,72.8417916 C26.9142222,77.4774344 29.7181778,81.5075097 32.3767778,84.9507948 C27.1088111,86.3168424 19.3252556,89.0512849 11.3518,94.8229535 C6.38157778,98.4211512 2.67032222,102.232941 0,105.443857 C5.32892222,106.500079 10.7258333,107.617328 16.1883889,108.79795 C20.9687111,109.8307 25.6833889,110.886923 30.3300778,111.96427 C27.4768889,113.722293 23.6437222,116.508373 19.9113667,120.71918 C16.3220222,124.768032 14.0596333,128.741776 12.6553111,131.710934 C15.3772111,133.274144 18.8001,134.954711 22.8888111,136.367702 C27.3878,137.923869 31.4718222,138.73364 34.7962444,139.160823 C30.8950889,143.500724 26.5062889,149.061148 22.3308333,155.926593 C18.4132667,162.364856 15.6093111,168.42992 13.5860556,173.624187 C20.3661889,173.549078 29.9010444,172.718183 40.7511333,169.340618 C51.4675889,166.002955 59.713,161.350882 65.3115333,157.604814 C64.0572556,160.428448 61.5815222,167.035706 62.7068556,175.487832 C63.6071222,182.259392 66.4110778,187.139139 68.1037667,189.645907 C71.1046556,188.1226 75.0667667,185.719107 79.0828,182.008245 C82.9042444,178.475768 85.5300222,174.908084 87.2696,172.136087 C88.6786111,175.323531 90.5987111,179.029698 93.2244889,182.940068 C96.0026556,187.078113 98.8722556,190.408734 101.411289,193 C103.962044,190.59416 107.0614,187.22129 109.970856,182.754643 C112.915478,178.231664 114.755867,173.983302 115.925744,170.64564 C117.250356,173.485704 119.4893,177.4571 123.1818,181.449621 C126.9587,185.533681 130.834067,188.103822 133.600511,189.645907 C135.621422,185.627568 137.904911,180.095309 139.367844,173.253335 C140.706522,166.995804 140.964411,161.489365 140.856567,157.233962 C144.818678,160.667858 150.311711,164.773043 157.415378,168.411142 C164.8543,172.220584 171.695389,174.302516 176.951633,175.49018 C176.801589,170.640945 176.201411,164.582923 174.532167,157.792586 C172.9356,151.286256 170.7834,145.84319 168.764833,141.58544 C173.449033,142.132329 178.552889,142.538388 184.022478,142.702689 C189.407667,142.864643 194.448222,142.770757 199.094911,142.517263 C198.396267,138.949579 196.851278,133.365683 193.140022,127.427366 C189.611633,121.782444 185.527611,118.064541 182.721311,115.876987 C186.591989,115.046092 192.364011,113.330317 198.536933,109.544347 C204.468378,105.899206 208.514889,101.728301 211,98.7356708" id="Fill-1" fill="#FFC370"></path>
                    <path d="M105.390399,103.525104 C102.507527,103.972224 99.582772,102.201809 98.5566648,99.7607137 C96.9511909,95.9353524 100.166792,90.8250853 104.280528,90.6195907 C107.047062,90.4818416 109.781021,92.5864677 110.558164,95.2782213 C111.579618,98.8032443 109.138832,102.942493 105.390399,103.525104 M104.096713,88.1107499 C97.5375379,89.1178993 93.1259748,97.0463782 95.787804,102.269554 C97.7911562,106.203308 103.428929,107.856298 107.975445,106.571392 C112.424236,105.315843 116.649658,101.016263 115.916724,95.9963234 C115.130274,90.6308816 109.099277,87.3429678 104.096713,88.1107499" id="Fill-3" fill="#FFFFFF"></path>
                </g>
            </g>
        </g>
    </g>
</svg>