<?xml version="1.0" encoding="UTF-8"?>
<svg width="370px" height="337px" viewBox="0 0 370 337" version="1.1" xmlns="http://www.w3.org/2000/svg" xmlns:xlink="http://www.w3.org/1999/xlink">
    <!-- Generator: Sketch 55.1 (78136) - https://sketchapp.com -->
    <title>Blob 1.2</title>
    <desc>Created with Sketch.</desc>
    <defs>
        <polygon id="path-1" points="0.000195456619 0.176 370 0.176 370 333.175646 0.000195456619 333.175646"></polygon>
        <path d="M154.978,0.176 C101.993,0.24 51.469,9.082 24.378,43.108 L24.378,43.108 C7.881,63.818 0.041,93.813 0,126.298 L0,126.298 L0,126.787 C0.046,166.631 11.802,210.167 33.686,244.882 L33.686,244.882 C73.516,307.951 147.008,341.806 203.074,331.276 L203.074,331.276 C259.14,320.859 297.887,266.056 328.626,208.422 L328.626,208.422 C351.519,165.651 369.94,121.261 370,86.632 L370,86.632 L370,86.298 C369.98,74.397 367.778,63.657 362.829,54.544 L362.829,54.544 C343.454,18.876 281.977,8.119 211.299,2.684 L211.299,2.684 C193.205,1.262 174.523,0.197 156.111,0.176 L156.111,0.176" id="path-3"></path>
    </defs>
    <g id="Mockups" stroke="none" stroke-width="1" fill="none" fill-rule="evenodd">
        <g id="1.0.-Subhome-1" transform="translate(-535.000000, -568.000000)">
            <g id="Blob-1.2" transform="translate(535.000000, 567.824000)">
                <g id="Group-8">
                    <g id="Group-3">
                        <mask id="mask-2" fill="white">
                            <use xlink:href="#path-1"></use>
                        </mask>
                        <g id="Clip-2"></g>
                        <path d="M33.6864,244.8819 C-6.1436,181.6999 -12.4216,89.3049 24.3784,43.1079 C61.0694,-2.9771 140.7304,-2.8631 211.2994,2.6849 C281.9774,8.1199 343.4544,18.8759 362.8284,54.5439 C382.2024,90.2109 359.4734,150.7889 328.6264,208.4219 C297.8874,266.0559 259.1394,320.8589 203.0734,331.2759 C147.0084,341.8059 73.5164,307.9509 33.6864,244.8819" id="Fill-1" fill="#FF7467" mask="url(#mask-2)"></path>
                    </g>
                    <path d="M185.4439,233.5666 C174.3599,233.5666 164.3539,229.1616 157.0589,222.0036 C157.4889,222.0016 157.9369,222.0046 158.4289,222.0256 C159.8329,222.0846 161.5159,222.2486 162.9169,222.4006 C164.3199,222.5536 165.4389,222.6956 166.3279,222.7326 C167.2199,222.7696 167.8809,222.7026 168.0699,222.5926 C168.2639,222.4856 167.9869,222.3316 167.8069,222.2086 L167.4449,221.8626 L167.1339,221.4286 L166.6449,220.8206 C166.4679,220.5796 166.2909,220.2886 166.0779,219.7666 C165.8669,219.2396 165.6149,218.4786 165.2549,217.0086 C164.8959,215.5376 164.4209,213.3606 164.0399,211.2786 C163.6579,209.1986 163.3649,207.2156 163.1749,205.0966 C162.9789,202.9766 162.8859,200.7206 162.9439,198.2356 C163.0019,195.7496 163.2089,193.0356 163.3399,191.0256 L163.5799,186.3886 C163.1029,186.5566 162.6279,186.7256 161.6809,186.9206 C160.7359,187.1136 159.3179,187.3386 157.8039,187.6486 C156.2879,187.9596 154.6769,188.3636 153.0749,188.4836 C151.4739,188.6026 149.8869,188.4416 148.7859,188.3496 C147.6869,188.2576 147.0779,188.2306 146.5209,188.1156 C146.0949,188.0256 145.6999,187.8786 145.3099,187.7226 C147.9119,167.8276 164.8129,152.5806 185.4439,152.5806 C207.8909,152.5806 225.9369,170.6266 225.9369,193.0736 C225.9369,215.5206 207.8909,233.5666 185.4439,233.5666 M250.1449,186.9116 L244.4229,181.1896 C242.2219,178.9886 241.3419,175.9076 242.2219,173.2666 L244.4229,165.7846 C245.7439,161.3836 243.1029,156.5416 238.7009,155.6616 L231.2189,153.4606 C228.1379,152.5806 225.9369,150.3796 225.4969,147.7386 L223.2959,140.2566 C221.9759,135.8546 217.5739,133.2136 213.1729,134.5346 L205.6909,136.7356 C202.6099,137.6156 199.5289,136.7356 197.7679,134.5346 L192.0459,128.8126 C188.9649,125.7316 183.6829,125.7316 180.1619,128.8126 L174.4399,134.5346 C172.2399,136.7356 169.1589,137.6156 166.5179,136.7356 L159.0349,134.5346 C154.6339,133.2136 149.7929,135.8546 148.9119,140.2566 L145.8309,147.2986 C144.9509,150.3796 142.7499,152.5806 140.1089,153.0206 L132.6269,155.2216 C128.2249,156.5416 125.5849,160.9426 126.9049,165.3446 L129.1059,172.8266 C129.9859,175.9076 129.1059,178.9886 126.9049,180.7496 L121.1829,186.4716 C118.1019,189.5526 118.1019,194.8336 121.1829,198.3556 L126.9049,204.0766 C129.1059,206.2776 129.9859,209.3586 129.1059,211.9996 L126.9049,219.4816 C125.5849,223.8836 128.2249,228.7246 132.6269,229.6056 L140.1089,231.8056 C143.1899,232.6866 145.3909,234.8866 145.8309,237.5276 L148.0319,245.0106 C149.3519,249.4116 153.7539,252.0526 158.1549,250.7326 L165.6379,248.5316 C168.7189,247.6506 171.7999,248.5316 173.5599,250.7326 L179.2819,256.4536 C182.3629,259.5346 187.6449,259.5346 191.1659,256.4536 L196.8879,250.7326 C199.0879,248.5316 202.1689,247.6506 204.8099,248.5316 L212.2929,250.7326 C216.6939,252.0526 221.5359,249.4116 222.4159,245.0106 L224.6169,237.5276 C225.4969,234.4466 227.6979,232.2456 230.3389,231.8056 L237.8209,229.6056 C242.2219,228.2846 244.8629,223.8836 243.5429,219.4816 L242.6629,212.4396 C241.7819,209.3586 242.6629,206.2776 244.8629,204.5166 L250.5849,198.7956 C253.6659,195.7146 253.6659,190.4326 250.1449,186.9116" id="Fill-4" fill="#4E97FF"></path>
                    <path d="M165.8695,194.4621 C165.7785,196.6181 165.7665,199.1511 165.8965,201.6901 C166.0245,204.2301 166.2935,206.7761 166.7065,209.2321 C167.1205,211.6881 167.6755,214.0601 168.1235,215.7221 C168.5725,217.3821 168.9055,218.3351 169.2435,219.2871 C170.7515,219.0661 172.2645,218.8511 173.7255,218.7241 C175.1835,218.5991 176.5935,218.5631 178.1385,218.6291 C179.6845,218.6931 181.3675,218.8581 182.9975,219.1601 C184.6295,219.4631 186.2035,219.9031 187.6435,220.2461 C189.0865,220.5851 190.3905,220.8291 191.9305,221.0351 C193.4685,221.2401 195.2435,221.4091 197.0775,221.3431 C198.9105,221.2811 200.8005,220.9861 201.9845,220.7521 C203.1675,220.5181 203.6425,220.3531 204.1345,219.8111 C204.6255,219.2661 205.1345,218.3501 205.4055,217.4701 C205.6785,216.5871 205.7125,215.7471 205.5515,215.0831 C205.3935,214.4191 205.0365,213.9341 204.6825,213.4501 C205.4405,213.2921 206.1965,213.1391 206.8665,212.8381 C207.5355,212.5391 208.1185,212.0921 208.5645,211.5471 C209.0075,211.0021 209.3175,210.3601 209.4905,209.5701 C209.6655,208.7771 209.7045,207.8411 209.5925,207.1321 C209.4815,206.4251 209.2195,205.9441 208.9095,205.5091 C208.5985,205.0731 208.2405,204.6841 207.8795,204.2921 C208.5555,203.8521 209.2315,203.4091 209.8145,202.9641 C210.3975,202.5211 210.8835,202.0721 211.2385,201.4751 C211.5895,200.8801 211.8085,200.1411 211.8835,199.4861 C211.9585,198.8321 211.8875,198.2651 211.7225,197.7441 C211.5555,197.2201 211.2965,196.7401 210.8465,196.2041 C210.3995,195.6681 209.7675,195.0781 209.3605,194.7341 C208.9515,194.3881 208.7695,194.2861 208.5865,194.1851 C209.1715,193.6461 209.7565,193.1081 210.2495,192.5651 C210.7425,192.0241 211.1385,191.4781 211.3555,190.7811 C211.5745,190.0871 211.6095,189.2441 211.5435,188.5371 C211.4795,187.8301 211.3155,187.2601 211.0555,186.7821 C210.7935,186.2991 210.4345,185.9111 209.9835,185.5171 C209.5285,185.1211 208.9825,184.7241 208.4765,184.4681 C207.9725,184.2121 207.5065,184.0951 206.5275,183.9641 C205.5455,183.8291 204.0525,183.6711 202.2685,183.6431 C200.4875,183.6181 198.4195,183.7191 197.0565,183.7541 C195.6925,183.7901 195.0375,183.7631 194.3825,183.7371 C194.8845,182.9121 195.3905,182.0901 196.1355,181.0861 C196.8825,180.0871 197.8695,178.9091 198.6695,177.7201 C199.4705,176.5331 200.0825,175.3401 200.5125,174.0431 C200.9415,172.7481 201.1905,171.3491 201.2855,170.1821 C201.3825,169.0121 201.3275,168.0711 201.1365,167.0311 C200.9435,165.9891 200.6175,164.8511 200.1855,163.9421 C199.7535,163.0321 199.2175,162.3531 198.6785,161.8121 C198.1375,161.2731 197.5925,160.8761 196.9455,160.6611 C196.2965,160.4451 195.5475,160.4141 194.8415,160.4341 C194.1365,160.4501 193.4775,160.5151 192.9055,160.7271 C192.3335,160.9371 191.8485,161.2931 191.5055,161.6531 C191.1605,162.0151 190.9595,162.3811 190.8895,162.8951 C190.8225,163.4101 190.8875,164.0701 190.8035,164.9571 C190.7195,165.8451 190.4855,166.9601 190.1645,167.8861 C189.8455,168.8091 189.4375,169.5431 188.8395,170.4101 C188.2385,171.2801 187.4465,172.2771 186.2255,173.4451 C185.0035,174.6151 183.3505,175.9541 181.8895,177.2061 C180.4305,178.4601 179.1605,179.6251 178.2295,180.5741 C177.2995,181.5191 176.7055,182.2451 176.0555,183.1561 C175.4095,184.0701 174.7065,185.1661 174.0145,186.0281 C173.3225,186.8901 172.6385,187.5191 171.7775,187.9041 C170.9145,188.2921 169.8765,188.4361 168.9335,188.5361 L166.2965,188.7561 C166.1275,190.5311 165.9585,192.3061 165.8695,194.4621" id="Fill-6" fill="#FFFFFF"></path>
                </g>
                <g id="Group-11">
                    <mask id="mask-4" fill="white">
                        <use xlink:href="#path-3"></use>
                    </mask>
                    <g id="Clip-10"></g>
                </g>
                <path d="M214.9335,261.7356 C213.6135,261.7356 211.8525,261.7356 210.5325,261.2956 L203.0495,259.0946 L197.7675,264.3766 C194.6865,267.4576 190.2855,269.6586 185.8845,269.6586 L185.4435,270.9786 L201.0495,336.9996 L221.5355,317.6336 L255.0645,329.1166 L228.1375,255.1336 C225.0565,259.0946 220.2155,261.7356 214.9335,261.7356" id="Fill-12" fill="#4E97FF"></path>
                <path d="M173.1199,264.3765 L167.8379,259.0945 L160.7959,260.8555 C159.4759,261.2955 157.7149,261.2955 156.3949,261.2955 C151.1129,261.2955 145.8309,258.6545 142.7499,254.6935 L115.3829,324.1165 L148.9119,317.6335 L167.8379,337.0005 L185.4439,270.9785 L185.8859,269.6765 C181.0439,269.5015 176.2009,267.4575 173.1199,264.3765" id="Fill-9" fill="#4E97FF"></path>
            </g>
        </g>
    </g>
</svg>