<?xml version="1.0" encoding="UTF-8"?>
<svg width="370px" height="351px" viewBox="0 0 370 351" version="1.1" xmlns="http://www.w3.org/2000/svg" xmlns:xlink="http://www.w3.org/1999/xlink">
    <!-- Generator: Sketch 55.1 (78136) - https://sketchapp.com -->
    <title>Blob 1.3</title>
    <desc>Created with Sketch.</desc>
    <defs>
        <polygon id="path-1" points="0.439053828 0.163 336.173721 0.163 336.173721 333.16287 0.439053828 333.16287"></polygon>
        <path d="M182.64,0.163 C116.588,0.234 49.773,36.14 19.706,90.71 L19.706,90.71 C-10.67,145.923 -3.622,220.182 30.278,268.683 L30.278,268.683 C64.177,317.266 124.927,340.006 170.743,331.363 L170.743,331.363 C216.557,322.72 247.268,282.527 280.077,234.699 L280.077,234.699 C312.969,186.787 347.792,131.071 332.436,84.585 L332.436,84.585 C317.081,38.099 251.379,0.759 184.671,0.172 L184.671,0.172 C184.15,0.167 183.623,0.163 183.102,0.163 L183.102,0.163 L182.64,0.163 Z" id="path-3"></path>
        <path d="M182.64,0.163 C116.588,0.234 49.773,36.14 19.706,90.71 L19.706,90.71 C-10.67,145.923 -3.622,220.182 30.278,268.683 L30.278,268.683 C64.177,317.266 124.927,340.006 170.743,331.363 L170.743,331.363 C216.557,322.72 247.268,282.527 280.077,234.699 L280.077,234.699 C312.969,186.787 347.792,131.071 332.436,84.585 L332.436,84.585 C317.081,38.099 251.379,0.759 184.671,0.172 L184.671,0.172 C184.15,0.167 183.623,0.163 183.102,0.163 L183.102,0.163 L182.64,0.163 Z" id="path-5"></path>
        <path d="M182.64,0.163 C116.588,0.234 49.773,36.14 19.706,90.71 L19.706,90.71 C-10.67,145.923 -3.622,220.182 30.278,268.683 L30.278,268.683 C64.177,317.266 124.927,340.006 170.743,331.363 L170.743,331.363 C216.557,322.72 247.268,282.527 280.077,234.699 L280.077,234.699 C312.969,186.787 347.792,131.071 332.436,84.585 L332.436,84.585 C317.081,38.099 251.379,0.759 184.671,0.172 L184.671,0.172 C184.15,0.167 183.623,0.163 183.102,0.163 L183.102,0.163 L182.64,0.163 Z" id="path-7"></path>
        <path d="M182.64,0.163 C116.588,0.234 49.773,36.14 19.706,90.71 L19.706,90.71 C-10.67,145.923 -3.622,220.182 30.278,268.683 L30.278,268.683 C64.177,317.266 124.927,340.006 170.743,331.363 L170.743,331.363 C216.557,322.72 247.268,282.527 280.077,234.699 L280.077,234.699 C312.969,186.787 347.792,131.071 332.436,84.585 L332.436,84.585 C317.081,38.099 251.379,0.759 184.671,0.172 L184.671,0.172 C184.15,0.167 183.623,0.163 183.102,0.163 L183.102,0.163 L182.64,0.163 Z" id="path-9"></path>
        <path d="M182.64,0.163 C116.588,0.234 49.773,36.14 19.706,90.71 L19.706,90.71 C-10.67,145.923 -3.622,220.182 30.278,268.683 L30.278,268.683 C64.177,317.266 124.927,340.006 170.743,331.363 L170.743,331.363 C216.557,322.72 247.268,282.527 280.077,234.699 L280.077,234.699 C312.969,186.787 347.792,131.071 332.436,84.585 L332.436,84.585 C317.081,38.099 251.379,0.759 184.671,0.172 L184.671,0.172 C184.15,0.167 183.623,0.163 183.102,0.163 L183.102,0.163 L182.64,0.163 Z" id="path-11"></path>
        <path d="M182.64,0.163 C116.588,0.234 49.773,36.14 19.706,90.71 L19.706,90.71 C-10.67,145.923 -3.622,220.182 30.278,268.683 L30.278,268.683 C64.177,317.266 124.927,340.006 170.743,331.363 L170.743,331.363 C216.557,322.72 247.268,282.527 280.077,234.699 L280.077,234.699 C312.969,186.787 347.792,131.071 332.436,84.585 L332.436,84.585 C317.081,38.099 251.379,0.759 184.671,0.172 L184.671,0.172 C184.15,0.167 183.623,0.163 183.102,0.163 L183.102,0.163 L182.64,0.163 Z" id="path-13"></path>
        <path d="M182.64,0.163 C116.588,0.234 49.773,36.14 19.706,90.71 L19.706,90.71 C-10.67,145.923 -3.622,220.182 30.278,268.683 L30.278,268.683 C64.177,317.266 124.927,340.006 170.743,331.363 L170.743,331.363 C216.557,322.72 247.268,282.527 280.077,234.699 L280.077,234.699 C312.969,186.787 347.792,131.071 332.436,84.585 L332.436,84.585 C317.081,38.099 251.379,0.759 184.671,0.172 L184.671,0.172 C184.15,0.167 183.623,0.163 183.102,0.163 L183.102,0.163 L182.64,0.163 Z" id="path-15"></path>
        <path d="M182.64,0.163 C116.588,0.234 49.773,36.14 19.706,90.71 L19.706,90.71 C-10.67,145.923 -3.622,220.182 30.278,268.683 L30.278,268.683 C64.177,317.266 124.927,340.006 170.743,331.363 L170.743,331.363 C216.557,322.72 247.268,282.527 280.077,234.699 L280.077,234.699 C312.969,186.787 347.792,131.071 332.436,84.585 L332.436,84.585 C317.081,38.099 251.379,0.759 184.671,0.172 L184.671,0.172 C184.15,0.167 183.623,0.163 183.102,0.163 L183.102,0.163 L182.64,0.163 Z" id="path-17"></path>
        <path d="M182.64,0.163 C116.588,0.234 49.773,36.14 19.706,90.71 L19.706,90.71 C-10.67,145.923 -3.622,220.182 30.278,268.683 L30.278,268.683 C64.177,317.266 124.927,340.006 170.743,331.363 L170.743,331.363 C216.557,322.72 247.268,282.527 280.077,234.699 L280.077,234.699 C312.969,186.787 347.792,131.071 332.436,84.585 L332.436,84.585 C317.081,38.099 251.379,0.759 184.671,0.172 L184.671,0.172 C184.15,0.167 183.623,0.163 183.102,0.163 L183.102,0.163" id="path-19"></path>
    </defs>
    <g id="Mockups" stroke="none" stroke-width="1" fill="none" fill-rule="evenodd">
        <g id="1.0.-Subhome-1" transform="translate(-935.000000, -567.000000)">
            <g id="Blob-1.3" transform="translate(935.000000, 567.000000)">
                <rect id="Rectangle" fill="#FFFFFF" x="0" y="0" width="370" height="351"></rect>
                <g id="Group-2" transform="translate(17.000000, 1.000000)">
                    <g id="Group-39">
                        <g id="Group-8" transform="translate(0.000000, 0.837000)">
                            <g id="Group-3">
                                <mask id="mask-2" fill="white">
                                    <use xlink:href="#path-1"></use>
                                </mask>
                                <g id="Clip-2"></g>
                                <path d="M184.6713,0.1719 C251.3793,0.7589 317.0803,38.0989 332.4363,84.5849 C347.7913,131.0709 312.9693,186.7869 280.0763,234.6989 C247.2683,282.5279 216.5573,322.7199 170.7423,331.3629 C124.9273,340.0059 64.1773,317.2659 30.2773,268.6819 C-3.6217,220.1829 -10.6697,145.9229 19.7053,90.7099 C50.0803,35.5819 117.9633,-0.4991 184.6713,0.1719" id="Fill-1" fill="#D4E700" mask="url(#mask-2)"></path>
                            </g>
                            <path d="M323.2121,256.8966 C314.9331,248.6056 303.4921,243.4876 290.8591,243.4876 C283.0821,243.4876 275.7471,245.4396 269.3311,248.8626 L271.4371,255.3316 C277.1631,252.0446 283.7841,250.1676 290.8591,250.1676 C301.6471,250.1676 311.4141,254.5466 318.4881,261.6086 C325.5611,268.6816 329.9411,278.4496 329.9411,289.2496 C329.9411,300.0386 325.5611,309.8066 318.4881,316.8796 C311.4141,323.9536 301.6471,328.3206 290.8591,328.3206 C280.0701,328.3206 270.3021,323.9536 263.2291,316.8796 C256.1561,309.8066 251.7761,300.0386 251.7761,289.2496 C251.7761,278.4496 256.1561,268.6816 263.2291,261.6086 C264.0091,260.8286 264.8371,260.0736 265.6781,259.3536 L263.4671,252.5916 C261.7081,253.9016 260.0581,255.3436 258.5051,256.8846 C250.2261,265.1756 245.0961,276.6036 245.0961,289.2496 C245.0961,301.8836 250.2261,313.3246 258.5051,321.6036 C266.7841,329.8826 278.2251,334.9996 290.8591,334.9996 C303.4921,334.9996 314.9331,329.8826 323.2121,321.5916 C331.4911,313.3246 336.6081,301.8836 336.6081,289.2496 C336.6081,276.6166 331.4911,265.1756 323.2121,256.8966" id="Fill-4" fill="#746A5B"></path>
                            <path d="M193.5709,301.7849 C193.5709,299.0229 194.6829,296.5239 196.4829,294.7369 L196.4949,294.7249 C198.2819,292.9249 200.7809,291.8129 203.5429,291.8129 C206.2919,291.8129 208.7909,292.9249 210.5779,294.7249 L210.5909,294.7369 C212.3899,296.5239 213.5029,299.0229 213.5029,301.7849 C213.5029,304.5469 212.3899,307.0329 210.5909,308.8209 L210.5779,308.8209 C208.7789,310.6319 206.2919,311.7439 203.5429,311.7439 C200.7809,311.7439 198.2949,310.6319 196.4949,308.8209 C194.6959,307.0209 193.5709,304.5339 193.5709,301.7849 M225.6989,321.4919 C224.5489,320.0169 222.4249,319.7539 220.9379,320.9039 L219.2629,322.2039 L215.0379,314.9039 C215.3419,314.6369 215.6489,314.3709 215.9339,314.0839 L215.9559,314.0839 C219.0899,310.9719 221.0269,306.6399 221.0269,301.8289 C221.0269,297.0189 219.0899,292.6659 215.9559,289.5529 L215.9339,289.5309 C212.8209,286.3969 208.4679,284.4589 203.6789,284.4589 C198.8689,284.4589 194.5149,286.3969 191.4029,289.5309 L191.3809,289.5529 C188.2469,292.6659 186.3089,297.0189 186.3089,301.8289 C186.3089,306.6179 188.2689,310.9499 191.4029,314.0839 C194.5369,317.2399 198.8689,319.1769 203.6789,319.1769 C205.6019,319.1769 207.4449,318.8519 209.1729,318.2739 L213.8769,326.3899 L211.5279,328.2149 C210.0539,329.3639 209.7909,331.5009 210.9409,332.9759 C212.0899,334.4499 214.2149,334.7129 215.6889,333.5629 L219.6879,330.4639 C219.8129,330.4009 219.9259,330.3509 220.0379,330.2889 C220.4379,330.0509 220.7629,329.7639 221.0249,329.4269 L225.0989,326.2529 C226.5739,325.1029 226.8479,322.9659 225.6989,321.4919" id="Fill-6" fill="#746A5B"></path>
                        </g>
                        <g id="Group-36" transform="translate(0.000000, 0.837000)">
                            <g id="Group-11">
                                <mask id="mask-4" fill="white">
                                    <use xlink:href="#path-3"></use>
                                </mask>
                                <g id="Clip-10"></g>
                                <path d="M9.306,227.888 L2.252,227.888 C2.289,228.116 2.342,228.352 2.421,228.578 L6.395,239.022 L4.948,240.633 L11.451,233.529 L9.306,227.888 Z" id="Fill-9" fill="#052E6F" mask="url(#mask-4)"></path>
                            </g>
                            <g id="Group-14">
                                <mask id="mask-6" fill="white">
                                    <use xlink:href="#path-5"></use>
                                </mask>
                                <g id="Clip-13"></g>
                                <path d="M179.0118,227.7048 C183.1578,227.2868 186.6758,226.2408 188.8898,224.8628 C190.0098,224.4078 190.9438,223.9038 191.6828,223.3498 C193.6258,222.4028 194.9668,220.5208 194.9668,218.3558 C194.9668,213.0538 190.3298,211.2578 184.6578,213.6198 C181.0788,215.1198 176.8708,214.9598 173.0458,214.7018 C166.8088,214.2718 163.3888,210.6548 159.1688,210.6548 C158.3568,210.6548 157.6188,210.9988 157.0528,211.5898 C155.3798,212.7828 154.3098,214.6408 154.3098,216.7318 C154.3098,217.0518 154.3348,217.3588 154.3838,217.6538 L154.3838,217.7778 C154.3838,220.1758 155.7858,222.2678 157.8778,223.3988 C158.7388,224.0508 159.8458,224.6418 161.1498,225.1338 C163.6468,226.5358 167.5218,227.5328 172.0118,227.8278 C172.0148,227.8478 172.0248,227.8678 172.0278,227.8878 L179.0818,227.8878 L179.0118,227.7048 Z" id="Fill-12" fill="#FFFFFF" mask="url(#mask-6)"></path>
                            </g>
                            <g id="Group-17">
                                <mask id="mask-8" fill="white">
                                    <use xlink:href="#path-7"></use>
                                </mask>
                                <g id="Clip-16"></g>
                                <path d="M94.1672,227.7048 C98.3132,227.2868 101.8192,226.2408 104.0452,224.8628 C105.1522,224.4078 106.1002,223.9038 106.8382,223.3498 C108.7812,222.4028 110.1222,220.5208 110.1222,218.3558 C110.1222,213.0538 105.4852,211.2578 99.8132,213.6198 C96.2342,215.1198 92.0142,214.9598 88.2012,214.7018 C81.9512,214.2718 78.5322,210.6548 74.3242,210.6548 C73.5122,210.6548 72.7742,210.9988 72.2082,211.5898 C70.5352,212.7828 69.4652,214.6408 69.4652,216.7318 C69.4652,217.0518 69.4902,217.3588 69.5272,217.6538 L69.5272,217.7778 C69.5272,220.1758 70.9412,222.2678 73.0332,223.3988 C73.8942,224.0508 75.0012,224.6418 76.3052,225.1338 C78.8022,226.5358 82.6772,227.5328 87.1672,227.8278 C87.1702,227.8478 87.1792,227.8678 87.1822,227.8878 L94.2372,227.8878 L94.1672,227.7048 Z" id="Fill-15" fill="#FFFFFF" mask="url(#mask-8)"></path>
                            </g>
                            <g id="Group-20">
                                <mask id="mask-10" fill="white">
                                    <use xlink:href="#path-9"></use>
                                </mask>
                                <g id="Clip-19"></g>
                                <path d="M9.2363,227.7048 C13.3823,227.2868 16.8883,226.2408 19.1143,224.8628 C20.2213,224.4078 21.1693,223.9038 21.9073,223.3498 C23.8503,222.4028 25.1793,220.5208 25.1793,218.3558 C25.1793,213.0538 20.5543,211.2578 14.8823,213.6198 C11.3033,215.1198 7.0833,214.9598 3.2703,214.7018 C-2.9797,214.2718 -6.3987,210.6548 -10.6067,210.6548 C-11.4177,210.6548 -12.1567,210.9988 -12.7347,211.5898 C-14.3947,212.7828 -15.4657,214.6408 -15.4657,216.7318 C-15.4657,217.0518 -15.4407,217.3588 -15.4037,217.6538 L-15.4037,217.7778 C-15.4037,220.1758 -14.0017,222.2678 -11.8977,223.3988 C-11.0487,224.0508 -9.9297,224.6418 -8.6257,225.1338 C-6.1287,226.5358 -2.2537,227.5328 2.2363,227.8278 C2.2393,227.8478 2.2483,227.8678 2.2513,227.8878 L9.3063,227.8878 L9.2363,227.7048 Z" id="Fill-18" fill="#FFFFFF" mask="url(#mask-10)"></path>
                            </g>
                            <g id="Group-23">
                                <mask id="mask-12" fill="white">
                                    <use xlink:href="#path-11"></use>
                                </mask>
                                <g id="Clip-22"></g>
                                <path d="M179.0815,227.888 L172.0275,227.888 C172.0655,228.116 172.1185,228.352 172.2095,228.578 L173.4265,231.777 C168.8505,230.706 164.4215,229.476 160.3005,227.951 C155.0115,225.97 150.1525,223.485 146.0555,220.115 L142.3405,206.066 C141.8725,204.295 140.0765,203.237 138.3055,203.679 L124.5525,206.484 C122.7565,206.853 121.5875,208.612 121.9565,210.409 C122.3255,212.204 124.0845,213.373 125.8805,213.004 L136.6945,210.802 L139.8805,222.821 C140.0405,223.448 140.3965,224.039 140.9135,224.494 C145.8345,228.763 151.6405,231.826 157.9755,234.175 C161.4525,235.478 165.0635,236.547 168.7615,237.493 L180.4235,231.417 L179.0815,227.888 Z" id="Fill-21" fill="#4E97FF" mask="url(#mask-12)"></path>
                            </g>
                            <g id="Group-26">
                                <mask id="mask-14" fill="white">
                                    <use xlink:href="#path-13"></use>
                                </mask>
                                <g id="Clip-25"></g>
                                <path d="M94.2369,227.888 L87.1819,227.888 C87.2199,228.116 87.2729,228.352 87.3519,228.578 L88.5819,231.801 C83.9809,230.719 79.5159,229.489 75.3699,227.951 C70.0809,225.97 65.2209,223.485 61.1129,220.115 L57.4099,206.066 C56.9419,204.295 55.1459,203.237 53.3749,203.679 L39.6219,206.484 C37.8259,206.853 36.6569,208.612 37.0259,210.409 C37.3949,212.204 39.1539,213.373 40.9499,213.004 L51.7629,210.802 L54.9489,222.821 C55.1089,223.448 55.4539,224.039 55.9829,224.494 C60.9039,228.763 66.7099,231.826 73.0449,234.175 C76.0919,235.318 79.2499,236.277 82.4689,237.137 L95.6939,231.717 L94.2369,227.888 Z" id="Fill-24" fill="#4E97FF" mask="url(#mask-14)"></path>
                            </g>
                            <g id="Group-29">
                                <mask id="mask-16" fill="white">
                                    <use xlink:href="#path-15"></use>
                                </mask>
                                <g id="Clip-28"></g>
                                <path d="M258.0256,214.1238 C260.7316,211.9338 263.3156,209.5228 265.5786,206.6688 C268.4206,203.0768 270.7456,198.8328 272.2216,193.4938 C272.7136,191.7228 271.6676,189.8898 269.8966,189.3968 C269.5516,189.2988 269.1956,189.2618 268.8506,189.2748 L238.6996,189.3358 C236.8666,189.3358 235.3786,190.8248 235.3786,192.6578 C235.3786,194.5028 236.8666,195.9908 238.6996,195.9908 L264.3236,195.9418 C263.2286,198.4388 261.8886,200.5918 260.3626,202.5108 C258.0136,205.4878 255.1956,207.9488 252.2186,210.2238 C251.0506,211.0358 250.5096,212.5488 250.9646,213.9758 L257.8166,235.0608 L257.8106,235.0648 L263.8206,231.9748 L258.0256,214.1238 Z" id="Fill-27" fill="#4E97FF" mask="url(#mask-16)"></path>
                            </g>
                            <g id="Group-32">
                                <mask id="mask-18" fill="white">
                                    <use xlink:href="#path-17"></use>
                                </mask>
                                <g id="Clip-31"></g>
                                <path d="M50.2256,300.4814 C49.8936,296.5074 48.1346,292.9284 45.4646,290.2584 L45.4526,290.2464 C42.4636,287.2694 38.3426,285.4244 33.8026,285.4244 C32.9416,285.4244 32.0926,285.4854 31.2686,285.6214 L24.6996,268.3614 L91.8796,240.4494 L103.8736,271.9784 L50.2256,300.4814 Z M40.7536,308.8344 L40.7406,308.8344 C38.9696,310.6184 36.5096,311.7124 33.8026,311.7124 C31.0966,311.7124 28.6486,310.6184 26.8766,308.8344 C25.0936,307.0634 23.9986,304.6154 23.9986,301.9084 C23.9986,299.1894 25.0936,296.7294 26.8526,294.9704 L26.8766,294.9584 C28.6366,293.1864 31.0846,292.0914 33.8026,292.0914 C36.5216,292.0914 38.9816,293.1864 40.7406,294.9584 L40.7536,294.9704 C42.5246,296.7294 43.6196,299.1894 43.6196,301.9084 C43.6196,304.6274 42.5246,307.0754 40.7536,308.8344 L40.7536,308.8344 Z M22.1536,290.2584 C20.5786,291.8334 19.3236,293.7274 18.4876,295.8314 L11.2046,294.4654 C11.4016,292.7564 11.5126,291.0094 11.5126,289.2504 C11.5126,284.2064 10.6876,279.3474 9.1876,274.8074 L18.5366,270.9204 L25.0196,287.9584 C23.9856,288.6224 23.0266,289.3854 22.1656,290.2464 L22.1536,290.2584 Z M-1.2694,257.5244 L9.0646,246.0224 L16.1626,264.6834 L6.6166,268.6574 C4.5496,264.5484 1.8796,260.8084 -1.2694,257.5244 L-1.2694,257.5244 Z M4.6236,293.2354 L-22.8094,288.0934 L2.9996,277.3794 C4.1806,281.1184 4.8326,285.1044 4.8326,289.2504 C4.8326,290.5914 4.7586,291.9194 4.6236,293.2354 L4.6236,293.2354 Z M-6.6204,316.8794 C-13.6934,323.9534 -23.4614,328.3204 -34.2504,328.3204 C-45.0384,328.3204 -54.8064,323.9404 -61.8794,316.8794 C-68.9534,309.8064 -73.3324,300.0384 -73.3324,289.2504 C-73.3324,278.4494 -68.9534,268.6814 -61.8794,261.6084 C-54.8064,254.5474 -45.0384,250.1674 -34.2504,250.1674 C-25.4054,250.1674 -17.2494,253.1074 -10.7044,258.0534 L-32.1834,281.9554 C-32.8234,281.7834 -33.4994,281.6964 -34.1884,281.6964 C-38.4944,281.6964 -41.9874,285.2024 -41.9874,289.5204 C-41.9874,293.8504 -38.4944,297.3564 -34.1884,297.3564 C-31.5194,297.3564 -29.1574,296.0034 -27.7544,293.9494 L3.3936,299.7804 C1.5606,306.3374 -1.9334,312.1924 -6.6204,316.8794 L-6.6204,316.8794 Z M-5.7474,262.5064 C-3.3114,265.1014 -1.2204,268.0424 0.4286,271.2284 L-21.9234,280.5154 L-5.7474,262.5064 Z M263.8206,231.9754 L257.8106,235.0644 L194.6476,268.8174 L180.4236,231.4174 L168.7616,237.4924 C168.7666,237.4944 168.7716,237.4954 168.7766,237.4964 L109.8146,268.8294 L95.6936,231.7164 L82.4686,237.1364 C82.4726,237.1374 82.4766,237.1394 82.4806,237.1404 L22.3256,262.1244 L11.4516,233.5294 L4.9476,240.6324 L-6.2264,253.0704 C-13.9764,247.0674 -23.6954,243.4874 -34.2504,243.4874 C-46.8834,243.4874 -58.3244,248.6054 -66.6034,256.8964 C-74.8824,265.1754 -80.0004,276.6164 -80.0004,289.2504 C-80.0004,301.8834 -74.8824,313.3244 -66.6034,321.5914 C-58.3244,329.8824 -46.8834,335.0004 -34.2504,335.0004 C-21.6164,335.0004 -10.1754,329.8824 -1.8964,321.5914 C3.7126,315.9814 7.8836,308.9204 9.9746,301.0104 L17.3306,302.3884 C17.4536,306.7434 19.2746,310.6794 22.1536,313.5584 C25.1296,316.5474 29.2516,318.3924 33.8026,318.3924 C35.6236,318.3924 37.3706,318.0974 39.0066,317.5564 L43.9886,326.1304 L41.6756,327.9264 C40.2246,329.0584 39.9656,331.1614 41.0976,332.6134 C42.2176,334.0644 44.3206,334.3234 45.7726,333.1914 L49.7086,330.1404 C49.8196,330.0914 49.9426,330.0304 50.0536,329.9684 C50.4346,329.7344 50.7666,329.4514 51.0256,329.1194 L55.0356,325.9954 C56.4876,324.8634 56.7456,322.7604 55.6256,321.3084 C54.4946,319.8564 52.3906,319.5984 50.9386,320.7304 L49.2906,322.0094 L44.7756,314.2104 C45.0096,314.0014 45.2436,313.7794 45.4646,313.5584 L45.4526,313.5584 C47.1496,311.8604 48.4786,309.7934 49.3156,307.4934 L50.1396,307.4934 C50.3366,307.5054 50.5206,307.5054 50.7176,307.4934 L102.3006,307.1664 C101.7526,305.4844 101.4486,303.6934 101.4486,301.8294 C101.4486,301.3884 101.4816,300.9564 101.5136,300.5234 L63.9296,300.7524 L106.2716,278.2644 L109.6236,287.0964 C111.4886,285.9314 113.5956,285.1134 115.8596,284.7274 L112.2016,275.1154 L176.8466,240.7694 L188.7176,271.9784 L136.0796,300.1054 C136.1356,300.6724 136.1666,301.2474 136.1666,301.8294 C136.1666,303.8174 135.8196,305.7154 135.2096,307.4874 L187.1656,307.1784 C186.6156,305.4924 186.3096,303.6974 186.3096,301.8294 C186.3096,301.3884 186.3426,300.9554 186.3746,300.5234 L148.9706,300.7524 L191.1046,278.2524 L194.4796,287.0994 C196.3426,285.9354 198.4456,285.1174 200.7056,284.7294 L197.0336,275.0784 L250.5586,246.4774 L212.5886,286.9354 C213.8086,287.6684 214.9406,288.5304 215.9336,289.5314 L215.9556,289.5524 C216.5296,290.1234 217.0486,290.7484 217.5386,291.3974 L261.0516,245.0254 L262.8306,250.5064 L268.6476,246.8454 L263.8206,231.9754 Z" id="Fill-30" fill="#FF7467" mask="url(#mask-18)"></path>
                            </g>
                            <g id="Group-35">
                                <mask id="mask-20" fill="white">
                                    <use xlink:href="#path-19"></use>
                                </mask>
                                <g id="Clip-34"></g>
                            </g>
                        </g>
                        <path d="M290.8587,282.5337 C289.2107,282.5337 287.6847,283.0507 286.4297,283.9237 C285.5447,283.2967 284.6957,282.6447 283.8717,281.9557 C281.4357,279.9017 279.2707,277.5147 277.4247,274.6977 L271.4097,256.1837 C271.4187,256.1787 271.4277,256.1737 271.4367,256.1687 L269.3307,249.6997 C269.3227,249.7047 269.3147,249.7087 269.3057,249.7127 L268.6467,247.6827 L262.8307,251.3427 L263.4997,253.4037 C263.4887,253.4117 263.4777,253.4207 263.4667,253.4287 L265.6777,260.1907 C265.6857,260.1837 265.6937,260.1767 265.7017,260.1697 L271.2257,277.1457 C271.3117,277.4037 271.4217,277.6627 271.5817,277.9087 C273.8697,281.4887 276.5637,284.5017 279.5657,287.0367 C280.6977,287.9957 281.8787,288.8817 283.0837,289.7177 C283.0717,289.9267 283.0597,290.1487 283.0597,290.3577 C283.0597,294.6877 286.5527,298.1937 290.8587,298.1937 C295.1637,298.1937 298.6577,294.6877 298.6577,290.3577 C298.6577,286.0397 295.1637,282.5337 290.8587,282.5337" id="Fill-37" fill="#FF7467"></path>
                    </g>
                    <path d="M108.7099,302.6219 C108.7099,299.8599 109.8219,297.3609 111.6219,295.5739 L111.6339,295.5619 C113.4209,293.7619 115.9199,292.6499 118.6819,292.6499 C121.4309,292.6499 123.9299,293.7619 125.7169,295.5619 L125.7299,295.5739 C127.5289,297.3609 128.6409,299.8599 128.6409,302.6219 C128.6409,305.3839 127.5289,307.8699 125.7299,309.6579 L125.7169,309.6579 C123.9179,311.4689 121.4309,312.5809 118.6819,312.5809 C115.9199,312.5809 113.4339,311.4689 111.6339,309.6579 C109.8349,307.8579 108.7099,305.3709 108.7099,302.6219 M140.8379,322.3289 C139.6879,320.8539 137.5639,320.5909 136.0769,321.7409 L134.4019,323.0409 L130.1769,315.7409 C130.4809,315.4739 130.7869,315.2079 131.0729,314.9209 L131.0949,314.9209 C134.2289,311.8089 136.1659,307.4769 136.1659,302.6659 C136.1659,297.8559 134.2289,293.5029 131.0949,290.3899 L131.0729,290.3679 C127.9599,287.2339 123.6069,285.2959 118.8179,285.2959 C114.0079,285.2959 109.6539,287.2339 106.5419,290.3679 L106.5199,290.3899 C103.3859,293.5029 101.4479,297.8559 101.4479,302.6659 C101.4479,307.4549 103.4079,311.7869 106.5419,314.9209 C109.6759,318.0769 114.0079,320.0139 118.8179,320.0139 C120.7409,320.0139 122.5839,319.6889 124.3119,319.1109 L129.0159,327.2269 L126.6669,329.0519 C125.1929,330.2009 124.9299,332.3379 126.0799,333.8129 C127.2289,335.2869 129.3539,335.5499 130.8279,334.3999 L134.8269,331.3009 C134.9519,331.2379 135.0649,331.1879 135.1769,331.1259 C135.5769,330.8879 135.9019,330.6009 136.1639,330.2639 L140.2379,327.0899 C141.7119,325.9399 141.9869,323.8029 140.8379,322.3289" id="Fill-33" fill="#746A5B"></path>
                </g>
            </g>
        </g>
    </g>
</svg>